<svg width="32" height="30" viewBox="0 0 32 30" fill="none" xmlns="http://www.w3.org/2000/svg">
<path d="M31 9.99996H25.57L19.86 0.489965C19.7144 0.289752 19.4997 0.150665 19.2575 0.0996179C19.0152 0.0485705 18.7627 0.0891913 18.5486 0.21362C18.3346 0.338049 18.1744 0.53744 18.0989 0.773212C18.0234 1.00898 18.038 1.26437 18.14 1.48996L23.23 9.99996H8.77L13.86 1.50996C13.962 1.28437 13.9766 1.02898 13.9011 0.793212C13.8256 0.55744 13.6654 0.358049 13.4514 0.23362C13.2373 0.109191 12.9848 0.0685705 12.7425 0.119618C12.5003 0.170665 12.2856 0.309752 12.14 0.509965L6.43 9.99996H1C0.734784 9.99996 0.48043 10.1053 0.292893 10.2929C0.105357 10.4804 0 10.7347 0 11L0 15C0 15.2652 0.105357 15.5195 0.292893 15.7071C0.48043 15.8946 0.734784 16 1 16C1.19 16 0.95 14.73 2.76 27.42C2.86188 28.1408 3.2224 28.8 3.77436 29.2747C4.32631 29.7493 5.03204 30.0071 5.76 30H11C11.2652 30 11.5196 29.8946 11.7071 29.7071C11.8946 29.5195 12 29.2652 12 29C12 28.7347 11.8946 28.4804 11.7071 28.2929C11.5196 28.1053 11.2652 28 11 28H5.73C5.48735 28.0024 5.2521 27.9164 5.06812 27.7582C4.88413 27.6 4.76396 27.3802 4.73 27.14L3.15 16H28.85L27.25 27.14C27.216 27.3802 27.0959 27.6 26.9119 27.7582C26.7279 27.9164 26.4927 28.0024 26.25 28H15C14.7348 28 14.4804 28.1053 14.2929 28.2929C14.1054 28.4804 14 28.7347 14 29C14 29.2652 14.1054 29.5195 14.2929 29.7071C14.4804 29.8946 14.7348 30 15 30H26.27C26.998 30.0071 27.7037 29.7493 28.2556 29.2747C28.8076 28.8 29.1681 28.1408 29.27 27.42L30.87 16C31.0118 16.0186 31.1559 16.0065 31.2927 15.9647C31.4295 15.9228 31.5556 15.8521 31.6628 15.7573C31.7699 15.6625 31.8554 15.5459 31.9136 15.4152C31.9717 15.2846 32.0012 15.143 32 15V11C32 10.7347 31.8946 10.4804 31.7071 10.2929C31.5196 10.1053 31.2652 9.99996 31 9.99996ZM2 14V12H30V14H2Z" fill="#000033"/>
<path d="M16 26C15.7348 26 15.4804 25.8946 15.2929 25.7071C15.1054 25.5196 15 25.2652 15 25V19C15 18.7348 15.1054 18.4804 15.2929 18.2929C15.4804 18.1054 15.7348 18 16 18C16.2652 18 16.5196 18.1054 16.7071 18.2929C16.8946 18.4804 17 18.7348 17 19V25C17 25.2652 16.8946 25.5196 16.7071 25.7071C16.5196 25.8946 16.2652 26 16 26Z" fill="#100FA8"/>
<path d="M10 26C9.76033 26.0031 9.52751 25.92 9.34396 25.7658C9.16041 25.6116 9.03836 25.3966 9.00002 25.16L8.00002 19.16C7.97901 19.0287 7.98407 18.8945 8.01491 18.7652C8.04576 18.6358 8.10178 18.5138 8.17978 18.4061C8.25778 18.2983 8.35623 18.207 8.46952 18.1374C8.5828 18.0677 8.7087 18.021 8.84002 18C8.97135 17.979 9.10552 17.9841 9.23489 18.0149C9.36425 18.0458 9.48628 18.1018 9.59399 18.1798C9.70171 18.2578 9.79301 18.3562 9.86267 18.4695C9.93234 18.5828 9.97901 18.7087 10 18.84L11 24.84C11.0234 24.9841 11.0149 25.1315 10.9753 25.272C10.9356 25.4124 10.8656 25.5425 10.7703 25.653C10.675 25.7636 10.5567 25.8519 10.4236 25.9119C10.2905 25.9718 10.146 26.0019 10 26Z" fill="#100FA8"/>
<path d="M22.0002 26C21.8543 26.0019 21.7097 25.9718 21.5766 25.9119C21.4435 25.8519 21.3252 25.7636 21.2299 25.653C21.1346 25.5425 21.0647 25.4124 21.025 25.272C20.9853 25.1315 20.9768 24.9841 21.0002 24.84L22.0002 18.84C22.0426 18.5748 22.1887 18.3373 22.4062 18.1798C22.6238 18.0223 22.895 17.9576 23.1602 18C23.4254 18.0425 23.6629 18.1885 23.8204 18.4061C23.978 18.6236 24.0426 18.8948 24.0002 19.16L23.0002 25.16C22.9619 25.3967 22.8398 25.6116 22.6563 25.7658C22.4727 25.92 22.2399 26.0031 22.0002 26Z" fill="#100FA8"/>
</svg>
