<svg width="40" height="41" viewBox="0 0 40 41" fill="none" xmlns="http://www.w3.org/2000/svg">
<path d="M25.67 35.2319V23.6219H29.5583L30.14 19.1086H25.67V16.2286C25.67 14.9219 26.0333 14.0303 27.9067 14.0303H30.2967V9.9936C29.1397 9.87084 27.9768 9.81131 26.8133 9.81527C23.3683 9.81527 21.01 11.9186 21.01 15.7819V19.1086H17.1133V23.6219H21.01V35.2319H6.66667C6.22464 35.2319 5.80072 35.0563 5.48816 34.7438C5.17559 34.4312 5 34.0073 5 33.5653V6.8986C5 6.45657 5.17559 6.03265 5.48816 5.72009C5.80072 5.40753 6.22464 5.23193 6.66667 5.23193H33.3333C33.7754 5.23193 34.1993 5.40753 34.5118 5.72009C34.8244 6.03265 35 6.45657 35 6.8986V33.5653C35 34.0073 34.8244 34.4312 34.5118 34.7438C34.1993 35.0563 33.7754 35.2319 33.3333 35.2319H25.67Z" fill="#000033"/>
</svg>
