<svg width="40" height="41" viewBox="0 0 40 41" fill="none" xmlns="http://www.w3.org/2000/svg">
<path d="M26.1167 30.7969V23.8353C26.1167 22.1753 26.0833 20.0386 23.8 20.0386C21.485 20.0386 21.1317 21.8453 21.1317 23.7136V30.7969H16.6883V16.4819H20.955V18.4319H21.0133C21.61 17.3086 23.06 16.1203 25.2267 16.1203C29.7267 16.1203 30.56 19.0836 30.56 22.9386V30.7969H26.1167ZM11.6717 14.5236C11.3326 14.524 10.9968 14.4576 10.6834 14.3279C10.3701 14.1983 10.0854 14.0082 9.84576 13.7683C9.60608 13.5285 9.41609 13.2437 9.28668 12.9303C9.15728 12.6169 9.09101 12.281 9.09167 11.9419C9.092 11.4317 9.24363 10.9329 9.5274 10.5088C9.81117 10.0847 10.2143 9.75432 10.6859 9.55935C11.1574 9.36438 11.6762 9.31363 12.1766 9.4135C12.677 9.51337 13.1366 9.75939 13.4972 10.1204C13.8578 10.4815 14.1032 10.9414 14.2024 11.4419C14.3016 11.9424 14.2502 12.4612 14.0546 12.9325C13.8591 13.4038 13.5281 13.8065 13.1037 14.0897C12.6792 14.3729 12.1819 14.5239 11.6717 14.5236ZM9.44333 30.7969V16.4819H13.9V30.7969H9.44333ZM32.7833 5.23193H7.215C5.98833 5.23193 5 6.1986 5 7.3936V33.0703C5 34.2653 5.99 35.2319 7.21333 35.2319H32.7767C34 35.2319 35 34.2653 35 33.0703V7.3936C35 6.1986 34 5.23193 32.7767 5.23193H32.7833Z" fill="#000033"/>
</svg>
