<svg width="40" height="41" viewBox="0 0 40 41" fill="none" xmlns="http://www.w3.org/2000/svg">
<path d="M20 3.56527C24.5283 3.56527 25.0933 3.58193 26.87 3.66527C28.645 3.7486 29.8533 4.02693 30.9167 4.44027C32.0167 4.8636 32.9433 5.43693 33.87 6.36193C34.7175 7.19509 35.3733 8.20291 35.7917 9.31527C36.2033 10.3769 36.4833 11.5869 36.5667 13.3619C36.645 15.1386 36.6667 15.7036 36.6667 20.2319C36.6667 24.7603 36.65 25.3253 36.5667 27.1019C36.4833 28.8769 36.2033 30.0853 35.7917 31.1486C35.3745 32.2616 34.7185 33.2696 33.87 34.1019C33.0366 34.9491 32.0288 35.6049 30.9167 36.0236C29.855 36.4353 28.645 36.7153 26.87 36.7986C25.0933 36.8769 24.5283 36.8986 20 36.8986C15.4717 36.8986 14.9067 36.8819 13.13 36.7986C11.355 36.7153 10.1467 36.4353 9.08333 36.0236C7.97054 35.6061 6.96254 34.9502 6.13 34.1019C5.28234 33.2689 4.62655 32.261 4.20833 31.1486C3.795 30.0869 3.51667 28.8769 3.43333 27.1019C3.355 25.3253 3.33333 24.7603 3.33333 20.2319C3.33333 15.7036 3.35 15.1386 3.43333 13.3619C3.51667 11.5853 3.795 10.3786 4.20833 9.31527C4.62539 8.20223 5.28134 7.19414 6.13 6.36193C6.96278 5.51399 7.97071 4.85815 9.08333 4.44027C10.1467 4.02693 11.3533 3.7486 13.13 3.66527C14.9067 3.58693 15.4717 3.56527 20 3.56527ZM20 11.8986C17.7899 11.8986 15.6702 12.7766 14.1074 14.3394C12.5446 15.9022 11.6667 18.0218 11.6667 20.2319C11.6667 22.4421 12.5446 24.5617 14.1074 26.1245C15.6702 27.6873 17.7899 28.5653 20 28.5653C22.2101 28.5653 24.3298 27.6873 25.8926 26.1245C27.4554 24.5617 28.3333 22.4421 28.3333 20.2319C28.3333 18.0218 27.4554 15.9022 25.8926 14.3394C24.3298 12.7766 22.2101 11.8986 20 11.8986ZM30.8333 11.4819C30.8333 10.9294 30.6138 10.3995 30.2231 10.0088C29.8324 9.61809 29.3025 9.3986 28.75 9.3986C28.1975 9.3986 27.6676 9.61809 27.2769 10.0088C26.8862 10.3995 26.6667 10.9294 26.6667 11.4819C26.6667 12.0345 26.8862 12.5644 27.2769 12.9551C27.6676 13.3458 28.1975 13.5653 28.75 13.5653C29.3025 13.5653 29.8324 13.3458 30.2231 12.9551C30.6138 12.5644 30.8333 12.0345 30.8333 11.4819ZM20 15.2319C21.3261 15.2319 22.5979 15.7587 23.5355 16.6964C24.4732 17.6341 25 18.9059 25 20.2319C25 21.558 24.4732 22.8298 23.5355 23.7675C22.5979 24.7051 21.3261 25.2319 20 25.2319C18.6739 25.2319 17.4021 24.7051 16.4645 23.7675C15.5268 22.8298 15 21.558 15 20.2319C15 18.9059 15.5268 17.6341 16.4645 16.6964C17.4021 15.7587 18.6739 15.2319 20 15.2319Z" fill="#000033"/>
</svg>
