<svg width="40" height="41" viewBox="0 0 40 41" fill="none" xmlns="http://www.w3.org/2000/svg">
<path d="M35.905 11.0619C36.6667 14.0319 36.6667 20.2319 36.6667 20.2319C36.6667 20.2319 36.6667 26.4319 35.905 29.4019C35.4817 31.0436 34.2433 32.3353 32.675 32.7719C29.8267 33.5653 20 33.5653 20 33.5653C20 33.5653 10.1783 33.5653 7.325 32.7719C5.75 32.3286 4.51333 31.0386 4.095 29.4019C3.33333 26.4319 3.33333 20.2319 3.33333 20.2319C3.33333 20.2319 3.33333 14.0319 4.095 11.0619C4.51833 9.42027 5.75667 8.1286 7.325 7.69193C10.1783 6.8986 20 6.8986 20 6.8986C20 6.8986 29.8267 6.8986 32.675 7.69193C34.25 8.13527 35.4867 9.42527 35.905 11.0619ZM16.6667 26.0653L26.6667 20.2319L16.6667 14.3986V26.0653Z" fill="#000033"/>
</svg>
